<?xml version="1.0" encoding="UTF-8"?>
<svg xmlns="http://www.w3.org/2000/svg" viewBox="0 0 256 256">
  <defs>
    <linearGradient id="winGrad" x1="0%" y1="0%" x2="100%" y2="100%">
      <stop offset="0%" stop-color="#1E3A8A"/>
      <stop offset="100%" stop-color="#3B82F6"/>
    </linearGradient>
    <filter id="dropShadow" x="-10%" y="-10%" width="120%" height="120%">
      <feDropShadow dx="0" dy="8" stdDeviation="12" flood-color="#000000" flood-opacity="0.2"/>
    </filter>
    <clipPath id="clipBottom">
       <path d="M 16 76 L 240 76 L 240 196 C 240 220.3 220.3 240 196 240 L 60 240 C 35.7 240 16 220.3 16 196 Z" />
    </clipPath>
  </defs>

  <rect x="16" y="16" width="224" height="224" rx="44" fill="#F8FAFC" filter="url(#dropShadow)" />

  <path d="M 16 60 C 16 35.7 35.7 16 60 16 L 196 16 C 220.3 16 240 35.7 240 60 L 240 76 L 16 76 Z" fill="#E2E8F0"/>
  
  <circle cx="44" cy="46" r="7" fill="#FC8181" />
  <circle cx="68" cy="46" r="7" fill="#F6AD55" />
  <circle cx="92" cy="46" r="7" fill="#68D391" />

  <rect x="16" y="76" width="224" height="164" fill="url(#winGrad)" clip-path="url(#clipBottom)" />
  
  <g stroke="#9AE6B4" stroke-width="12" stroke-linecap="round" stroke-linejoin="round" fill="none">
     <path d="M 48 116 L 80 148 L 48 180" />
     <line x1="96" y1="180" x2="136" y2="180" />
  </g>

  <g transform="translate(156, 120)" stroke="#FBD38D" stroke-width="6" stroke-linecap="round" stroke-linejoin="round" fill="none">
     <path d="M 10 0 L 54 0 L 46 26 L 18 26 Z" />
     <path d="M 32 26 L 32 46 C 32 60, 44 68, 44 86" stroke-width="8"/>
     <circle cx="22" cy="11" r="2" fill="#FBD38D" stroke="none" />
     <circle cx="32" cy="11" r="2" fill="#FBD38D" stroke="none" />
     <circle cx="42" cy="11" r="2" fill="#FBD38D" stroke="none" />
     <circle cx="27" cy="19" r="2" fill="#FBD38D" stroke="none" />
     <circle cx="37" cy="19" r="2" fill="#FBD38D" stroke="none" />
  </g>

  <rect x="16" y="16" width="224" height="224" rx="44" fill="none" stroke="#FFFFFF" stroke-width="2" opacity="0.6"/>
</svg>
